<mxfile host="app.diagrams.net" modified="2024-04-23T21:15:20.560Z" agent="Mozilla/5.0 (Windows NT 10.0; Win64; x64) AppleWebKit/537.36 (KHTML, like Gecko) Chrome/123.0.0.0 Safari/537.36" etag="pYmZ5IMwFxOgvmtfa3ks" version="24.2.8" type="github" pages="4">
  <diagram id="R2lEEEUBdFMjLlhIrx00" name="Ejercicio1">
    <mxGraphModel dx="1884" dy="446" grid="1" gridSize="10" guides="1" tooltips="1" connect="1" arrows="1" fold="1" page="1" pageScale="1" pageWidth="850" pageHeight="1100" math="0" shadow="0" extFonts="Permanent Marker^https://fonts.googleapis.com/css?family=Permanent+Marker">
      <root>
        <mxCell id="0" />
        <mxCell id="1" parent="0" />
        <mxCell id="F15RlK86ZsekV8ikuqOl-1" value="Asunto" style="rounded=0;whiteSpace=wrap;html=1;" vertex="1" parent="1">
          <mxGeometry x="110" y="100" width="120" height="60" as="geometry" />
        </mxCell>
        <mxCell id="F15RlK86ZsekV8ikuqOl-2" value="Cliente" style="whiteSpace=wrap;html=1;" vertex="1" parent="1">
          <mxGeometry x="500" y="100" width="120" height="60" as="geometry" />
        </mxCell>
        <mxCell id="F15RlK86ZsekV8ikuqOl-5" value="Procurador" style="whiteSpace=wrap;html=1;" vertex="1" parent="1">
          <mxGeometry x="110" y="350" width="120" height="60" as="geometry" />
        </mxCell>
        <mxCell id="F15RlK86ZsekV8ikuqOl-7" value="" style="endArrow=none;html=1;rounded=0;exitX=1;exitY=0.5;exitDx=0;exitDy=0;entryX=0;entryY=0.5;entryDx=0;entryDy=0;" edge="1" parent="1" source="F15RlK86ZsekV8ikuqOl-1" target="F15RlK86ZsekV8ikuqOl-2">
          <mxGeometry width="50" height="50" relative="1" as="geometry">
            <mxPoint x="380" y="270" as="sourcePoint" />
            <mxPoint x="430" y="220" as="targetPoint" />
          </mxGeometry>
        </mxCell>
        <mxCell id="F15RlK86ZsekV8ikuqOl-9" value="Corresponde" style="rhombus;whiteSpace=wrap;html=1;" vertex="1" parent="1">
          <mxGeometry x="295" y="90" width="140" height="80" as="geometry" />
        </mxCell>
        <mxCell id="F15RlK86ZsekV8ikuqOl-10" value="NºExp" style="ellipse;whiteSpace=wrap;html=1;" vertex="1" parent="1">
          <mxGeometry x="-10" y="100" width="120" height="50" as="geometry" />
        </mxCell>
        <mxCell id="F15RlK86ZsekV8ikuqOl-11" value="Periodo" style="ellipse;whiteSpace=wrap;html=1;" vertex="1" parent="1">
          <mxGeometry x="-10" y="150" width="120" height="50" as="geometry" />
        </mxCell>
        <mxCell id="F15RlK86ZsekV8ikuqOl-12" value="Estado" style="ellipse;whiteSpace=wrap;html=1;" vertex="1" parent="1">
          <mxGeometry x="-10" y="200" width="120" height="50" as="geometry" />
        </mxCell>
        <mxCell id="F15RlK86ZsekV8ikuqOl-13" value="" style="endArrow=none;html=1;rounded=0;entryX=0.5;entryY=1;entryDx=0;entryDy=0;exitX=0.5;exitY=0;exitDx=0;exitDy=0;" edge="1" parent="1" source="F15RlK86ZsekV8ikuqOl-14" target="F15RlK86ZsekV8ikuqOl-1">
          <mxGeometry width="50" height="50" relative="1" as="geometry">
            <mxPoint x="380" y="270" as="sourcePoint" />
            <mxPoint x="430" y="220" as="targetPoint" />
          </mxGeometry>
        </mxCell>
        <mxCell id="F15RlK86ZsekV8ikuqOl-15" value="" style="endArrow=none;html=1;rounded=0;entryX=0.5;entryY=1;entryDx=0;entryDy=0;exitX=0.5;exitY=0;exitDx=0;exitDy=0;" edge="1" parent="1" source="F15RlK86ZsekV8ikuqOl-5" target="F15RlK86ZsekV8ikuqOl-14">
          <mxGeometry width="50" height="50" relative="1" as="geometry">
            <mxPoint x="440" y="340" as="sourcePoint" />
            <mxPoint x="230" y="130" as="targetPoint" />
          </mxGeometry>
        </mxCell>
        <mxCell id="F15RlK86ZsekV8ikuqOl-14" value="Lleva" style="rhombus;whiteSpace=wrap;html=1;rotation=0;" vertex="1" parent="1">
          <mxGeometry x="91.63999999999999" y="230" width="156.72" height="62.68" as="geometry" />
        </mxCell>
        <mxCell id="F15RlK86ZsekV8ikuqOl-18" value="DNI" style="ellipse;whiteSpace=wrap;html=1;" vertex="1" parent="1">
          <mxGeometry x="500" y="160" width="120" height="50" as="geometry" />
        </mxCell>
        <mxCell id="F15RlK86ZsekV8ikuqOl-19" value="Nombre" style="ellipse;whiteSpace=wrap;html=1;" vertex="1" parent="1">
          <mxGeometry x="500" y="210" width="120" height="50" as="geometry" />
        </mxCell>
        <mxCell id="F15RlK86ZsekV8ikuqOl-20" value="Dirección" style="ellipse;whiteSpace=wrap;html=1;" vertex="1" parent="1">
          <mxGeometry x="500" y="260" width="120" height="50" as="geometry" />
        </mxCell>
        <mxCell id="F15RlK86ZsekV8ikuqOl-21" value="DNI" style="ellipse;whiteSpace=wrap;html=1;" vertex="1" parent="1">
          <mxGeometry x="230" y="350" width="120" height="50" as="geometry" />
        </mxCell>
        <mxCell id="F15RlK86ZsekV8ikuqOl-22" value="Nombre" style="ellipse;whiteSpace=wrap;html=1;" vertex="1" parent="1">
          <mxGeometry x="230" y="400" width="120" height="50" as="geometry" />
        </mxCell>
        <mxCell id="F15RlK86ZsekV8ikuqOl-23" value="Dirección" style="ellipse;whiteSpace=wrap;html=1;" vertex="1" parent="1">
          <mxGeometry x="230" y="450" width="120" height="50" as="geometry" />
        </mxCell>
        <mxCell id="F15RlK86ZsekV8ikuqOl-25" value="1" style="text;html=1;align=center;verticalAlign=middle;resizable=0;points=[];autosize=1;strokeColor=none;fillColor=none;" vertex="1" parent="1">
          <mxGeometry x="470" y="70" width="30" height="30" as="geometry" />
        </mxCell>
        <mxCell id="F15RlK86ZsekV8ikuqOl-26" value="N" style="text;html=1;align=center;verticalAlign=middle;resizable=0;points=[];autosize=1;strokeColor=none;fillColor=none;" vertex="1" parent="1">
          <mxGeometry x="230" y="70" width="30" height="30" as="geometry" />
        </mxCell>
        <mxCell id="F15RlK86ZsekV8ikuqOl-27" value="(1,N&lt;span style=&quot;background-color: initial;&quot;&gt;)&lt;/span&gt;" style="text;html=1;align=center;verticalAlign=middle;resizable=0;points=[];autosize=1;strokeColor=none;fillColor=none;" vertex="1" parent="1">
          <mxGeometry x="340" y="50" width="50" height="30" as="geometry" />
        </mxCell>
        <mxCell id="F15RlK86ZsekV8ikuqOl-28" value="N" style="text;html=1;align=center;verticalAlign=middle;resizable=0;points=[];autosize=1;strokeColor=none;fillColor=none;" vertex="1" parent="1">
          <mxGeometry x="215" y="308" width="30" height="30" as="geometry" />
        </mxCell>
        <mxCell id="F15RlK86ZsekV8ikuqOl-29" value="N" style="text;html=1;align=center;verticalAlign=middle;resizable=0;points=[];autosize=1;strokeColor=none;fillColor=none;" vertex="1" parent="1">
          <mxGeometry x="215" y="170" width="30" height="30" as="geometry" />
        </mxCell>
        <mxCell id="F15RlK86ZsekV8ikuqOl-30" value="(N,M&lt;span style=&quot;background-color: initial;&quot;&gt;)&lt;/span&gt;" style="text;html=1;align=center;verticalAlign=middle;resizable=0;points=[];autosize=1;strokeColor=none;fillColor=none;" vertex="1" parent="1">
          <mxGeometry x="248.36" y="246.34" width="50" height="30" as="geometry" />
        </mxCell>
      </root>
    </mxGraphModel>
  </diagram>
  <diagram id="CXR2Wb69tk7Tgtd5U62r" name="Ejercicio2">
    <mxGraphModel dx="1034" dy="446" grid="1" gridSize="10" guides="1" tooltips="1" connect="1" arrows="1" fold="1" page="1" pageScale="1" pageWidth="850" pageHeight="1100" math="0" shadow="0">
      <root>
        <mxCell id="0" />
        <mxCell id="1" parent="0" />
        <mxCell id="1qrAcVEEd5SkYplnu0CV-1" value="Zoo" style="rounded=0;whiteSpace=wrap;html=1;" vertex="1" parent="1">
          <mxGeometry x="120" y="80" width="120" height="60" as="geometry" />
        </mxCell>
        <mxCell id="1qrAcVEEd5SkYplnu0CV-2" value="Nombre" style="ellipse;whiteSpace=wrap;html=1;" vertex="1" parent="1">
          <mxGeometry y="85" width="120" height="50" as="geometry" />
        </mxCell>
        <mxCell id="1qrAcVEEd5SkYplnu0CV-3" value="Localización" style="ellipse;whiteSpace=wrap;html=1;" vertex="1" parent="1">
          <mxGeometry y="135" width="120" height="50" as="geometry" />
        </mxCell>
        <mxCell id="1qrAcVEEd5SkYplnu0CV-5" value="Tamaño" style="ellipse;whiteSpace=wrap;html=1;" vertex="1" parent="1">
          <mxGeometry y="185" width="120" height="50" as="geometry" />
        </mxCell>
        <mxCell id="1qrAcVEEd5SkYplnu0CV-6" value="Presupuesto Anual" style="ellipse;whiteSpace=wrap;html=1;" vertex="1" parent="1">
          <mxGeometry y="235" width="120" height="50" as="geometry" />
        </mxCell>
        <mxCell id="1qrAcVEEd5SkYplnu0CV-7" value="Especie" style="rounded=0;whiteSpace=wrap;html=1;" vertex="1" parent="1">
          <mxGeometry x="730" y="80" width="120" height="60" as="geometry" />
        </mxCell>
        <mxCell id="1qrAcVEEd5SkYplnu0CV-8" value="Nombre Vulgar" style="ellipse;whiteSpace=wrap;html=1;" vertex="1" parent="1">
          <mxGeometry x="730" y="140" width="120" height="50" as="geometry" />
        </mxCell>
        <mxCell id="1qrAcVEEd5SkYplnu0CV-11" value="Nombre científico" style="ellipse;whiteSpace=wrap;html=1;" vertex="1" parent="1">
          <mxGeometry x="730" y="190" width="120" height="50" as="geometry" />
        </mxCell>
        <mxCell id="1qrAcVEEd5SkYplnu0CV-12" value="Familia" style="ellipse;whiteSpace=wrap;html=1;" vertex="1" parent="1">
          <mxGeometry x="730" y="240" width="120" height="50" as="geometry" />
        </mxCell>
        <mxCell id="1qrAcVEEd5SkYplnu0CV-13" value="¿Peligro extinción?" style="ellipse;whiteSpace=wrap;html=1;" vertex="1" parent="1">
          <mxGeometry x="730" y="290" width="120" height="50" as="geometry" />
        </mxCell>
        <mxCell id="1qrAcVEEd5SkYplnu0CV-14" value="Animal" style="rounded=0;whiteSpace=wrap;html=1;" vertex="1" parent="1">
          <mxGeometry x="420" y="80" width="120" height="60" as="geometry" />
        </mxCell>
        <mxCell id="1qrAcVEEd5SkYplnu0CV-16" value="" style="endArrow=none;html=1;rounded=0;exitX=1;exitY=0.5;exitDx=0;exitDy=0;entryX=0;entryY=0.5;entryDx=0;entryDy=0;" edge="1" parent="1" source="1qrAcVEEd5SkYplnu0CV-21" target="1qrAcVEEd5SkYplnu0CV-14">
          <mxGeometry width="50" height="50" relative="1" as="geometry">
            <mxPoint x="400" y="260" as="sourcePoint" />
            <mxPoint x="450" y="210" as="targetPoint" />
          </mxGeometry>
        </mxCell>
        <mxCell id="1qrAcVEEd5SkYplnu0CV-17" value="" style="endArrow=none;html=1;rounded=0;exitX=1;exitY=0.5;exitDx=0;exitDy=0;entryX=0;entryY=0.5;entryDx=0;entryDy=0;" edge="1" parent="1" source="1qrAcVEEd5SkYplnu0CV-22" target="1qrAcVEEd5SkYplnu0CV-7">
          <mxGeometry width="50" height="50" relative="1" as="geometry">
            <mxPoint x="460" y="109.5" as="sourcePoint" />
            <mxPoint x="520" y="109.5" as="targetPoint" />
          </mxGeometry>
        </mxCell>
        <mxCell id="1qrAcVEEd5SkYplnu0CV-18" value="NºIdentificacion" style="ellipse;whiteSpace=wrap;html=1;" vertex="1" parent="1">
          <mxGeometry x="420" y="140" width="120" height="50" as="geometry" />
        </mxCell>
        <mxCell id="1qrAcVEEd5SkYplnu0CV-23" value="" style="endArrow=none;html=1;rounded=0;exitX=1;exitY=0.5;exitDx=0;exitDy=0;entryX=0;entryY=0.5;entryDx=0;entryDy=0;" edge="1" parent="1" source="1qrAcVEEd5SkYplnu0CV-14" target="1qrAcVEEd5SkYplnu0CV-22">
          <mxGeometry width="50" height="50" relative="1" as="geometry">
            <mxPoint x="530" y="110" as="sourcePoint" />
            <mxPoint x="700" y="110" as="targetPoint" />
          </mxGeometry>
        </mxCell>
        <mxCell id="1qrAcVEEd5SkYplnu0CV-22" value="Pertenece" style="rhombus;whiteSpace=wrap;html=1;" vertex="1" parent="1">
          <mxGeometry x="600" y="85" width="80" height="50" as="geometry" />
        </mxCell>
        <mxCell id="1qrAcVEEd5SkYplnu0CV-24" value="" style="endArrow=none;html=1;rounded=0;exitX=1;exitY=0.5;exitDx=0;exitDy=0;entryX=0;entryY=0.5;entryDx=0;entryDy=0;" edge="1" parent="1" source="1qrAcVEEd5SkYplnu0CV-1" target="1qrAcVEEd5SkYplnu0CV-21">
          <mxGeometry width="50" height="50" relative="1" as="geometry">
            <mxPoint x="250" y="110" as="sourcePoint" />
            <mxPoint x="420" y="110" as="targetPoint" />
          </mxGeometry>
        </mxCell>
        <mxCell id="1qrAcVEEd5SkYplnu0CV-21" value="Tiene" style="rhombus;whiteSpace=wrap;html=1;" vertex="1" parent="1">
          <mxGeometry x="300" y="85" width="80" height="50" as="geometry" />
        </mxCell>
        <mxCell id="1qrAcVEEd5SkYplnu0CV-25" value="Especie" style="ellipse;whiteSpace=wrap;html=1;" vertex="1" parent="1">
          <mxGeometry x="420" y="190" width="120" height="50" as="geometry" />
        </mxCell>
        <mxCell id="1qrAcVEEd5SkYplnu0CV-26" value="Sexo" style="ellipse;whiteSpace=wrap;html=1;" vertex="1" parent="1">
          <mxGeometry x="420" y="240" width="120" height="50" as="geometry" />
        </mxCell>
        <mxCell id="1qrAcVEEd5SkYplnu0CV-27" value="Año nacimiento" style="ellipse;whiteSpace=wrap;html=1;" vertex="1" parent="1">
          <mxGeometry x="420" y="290" width="120" height="50" as="geometry" />
        </mxCell>
        <mxCell id="1qrAcVEEd5SkYplnu0CV-28" value="Pais Origen" style="ellipse;whiteSpace=wrap;html=1;" vertex="1" parent="1">
          <mxGeometry x="420" y="340" width="120" height="50" as="geometry" />
        </mxCell>
        <mxCell id="1qrAcVEEd5SkYplnu0CV-29" value="Continente" style="ellipse;whiteSpace=wrap;html=1;" vertex="1" parent="1">
          <mxGeometry x="420" y="390" width="120" height="50" as="geometry" />
        </mxCell>
        <mxCell id="1qrAcVEEd5SkYplnu0CV-30" value="N" style="text;html=1;align=center;verticalAlign=middle;resizable=0;points=[];autosize=1;strokeColor=none;fillColor=none;" vertex="1" parent="1">
          <mxGeometry x="390" y="50" width="30" height="30" as="geometry" />
        </mxCell>
        <mxCell id="1qrAcVEEd5SkYplnu0CV-31" value="1" style="text;html=1;align=center;verticalAlign=middle;resizable=0;points=[];autosize=1;strokeColor=none;fillColor=none;" vertex="1" parent="1">
          <mxGeometry x="240" y="50" width="30" height="30" as="geometry" />
        </mxCell>
        <mxCell id="1qrAcVEEd5SkYplnu0CV-32" value="(1,N)" style="text;html=1;align=center;verticalAlign=middle;resizable=0;points=[];autosize=1;strokeColor=none;fillColor=none;" vertex="1" parent="1">
          <mxGeometry x="315" y="38" width="50" height="30" as="geometry" />
        </mxCell>
        <mxCell id="1qrAcVEEd5SkYplnu0CV-33" value="(1,N)" style="text;html=1;align=center;verticalAlign=middle;resizable=0;points=[];autosize=1;strokeColor=none;fillColor=none;" vertex="1" parent="1">
          <mxGeometry x="615" y="38" width="50" height="30" as="geometry" />
        </mxCell>
        <mxCell id="1qrAcVEEd5SkYplnu0CV-34" value="1" style="text;html=1;align=center;verticalAlign=middle;resizable=0;points=[];autosize=1;strokeColor=none;fillColor=none;" vertex="1" parent="1">
          <mxGeometry x="700" y="50" width="30" height="30" as="geometry" />
        </mxCell>
        <mxCell id="1qrAcVEEd5SkYplnu0CV-35" value="N" style="text;html=1;align=center;verticalAlign=middle;resizable=0;points=[];autosize=1;strokeColor=none;fillColor=none;" vertex="1" parent="1">
          <mxGeometry x="540" y="50" width="30" height="30" as="geometry" />
        </mxCell>
        <mxCell id="1qrAcVEEd5SkYplnu0CV-36" value="" style="endArrow=none;dashed=1;html=1;rounded=0;entryX=0;entryY=0.5;entryDx=0;entryDy=0;exitX=1;exitY=0.5;exitDx=0;exitDy=0;" edge="1" parent="1" source="1qrAcVEEd5SkYplnu0CV-25" target="1qrAcVEEd5SkYplnu0CV-7">
          <mxGeometry width="50" height="50" relative="1" as="geometry">
            <mxPoint x="650" y="185" as="sourcePoint" />
            <mxPoint x="700" y="135" as="targetPoint" />
          </mxGeometry>
        </mxCell>
      </root>
    </mxGraphModel>
  </diagram>
  <diagram id="vvasE53OxaRX4iW6OCda" name="Ejercicio3">
    <mxGraphModel dx="1034" dy="446" grid="1" gridSize="10" guides="1" tooltips="1" connect="1" arrows="1" fold="1" page="1" pageScale="1" pageWidth="850" pageHeight="1100" math="0" shadow="0">
      <root>
        <mxCell id="0" />
        <mxCell id="1" parent="0" />
        <mxCell id="NeY4OhsJSQNsuHjUpiiP-1" value="Socio" style="rounded=0;whiteSpace=wrap;html=1;" vertex="1" parent="1">
          <mxGeometry y="60" width="120" height="60" as="geometry" />
        </mxCell>
        <mxCell id="NeY4OhsJSQNsuHjUpiiP-2" value="Barco" style="rounded=0;whiteSpace=wrap;html=1;" vertex="1" parent="1">
          <mxGeometry x="360" y="60" width="120" height="60" as="geometry" />
        </mxCell>
        <mxCell id="NeY4OhsJSQNsuHjUpiiP-3" value="Salidas" style="rounded=0;whiteSpace=wrap;html=1;" vertex="1" parent="1">
          <mxGeometry x="360" y="280" width="120" height="60" as="geometry" />
        </mxCell>
        <mxCell id="NeY4OhsJSQNsuHjUpiiP-4" value="" style="endArrow=none;html=1;rounded=0;entryX=0.5;entryY=1;entryDx=0;entryDy=0;exitX=0.5;exitY=0;exitDx=0;exitDy=0;" edge="1" parent="1" source="NeY4OhsJSQNsuHjUpiiP-3" target="NeY4OhsJSQNsuHjUpiiP-2">
          <mxGeometry width="50" height="50" relative="1" as="geometry">
            <mxPoint x="400" y="260" as="sourcePoint" />
            <mxPoint x="450" y="200" as="targetPoint" />
          </mxGeometry>
        </mxCell>
        <mxCell id="NeY4OhsJSQNsuHjUpiiP-5" value="Realiza" style="rhombus;whiteSpace=wrap;html=1;" vertex="1" parent="1">
          <mxGeometry x="340" y="170" width="160" height="60" as="geometry" />
        </mxCell>
        <mxCell id="NeY4OhsJSQNsuHjUpiiP-7" value="" style="endArrow=none;html=1;rounded=0;exitX=1;exitY=0.5;exitDx=0;exitDy=0;entryX=0;entryY=0.5;entryDx=0;entryDy=0;" edge="1" parent="1" source="NeY4OhsJSQNsuHjUpiiP-6" target="NeY4OhsJSQNsuHjUpiiP-2">
          <mxGeometry width="50" height="50" relative="1" as="geometry">
            <mxPoint x="400" y="260" as="sourcePoint" />
            <mxPoint x="450" y="210" as="targetPoint" />
          </mxGeometry>
        </mxCell>
        <mxCell id="NeY4OhsJSQNsuHjUpiiP-8" value="" style="endArrow=none;html=1;rounded=0;exitX=1;exitY=0.5;exitDx=0;exitDy=0;entryX=0;entryY=0.5;entryDx=0;entryDy=0;" edge="1" parent="1" source="NeY4OhsJSQNsuHjUpiiP-1" target="NeY4OhsJSQNsuHjUpiiP-6">
          <mxGeometry width="50" height="50" relative="1" as="geometry">
            <mxPoint x="120" y="90" as="sourcePoint" />
            <mxPoint x="360" y="90" as="targetPoint" />
          </mxGeometry>
        </mxCell>
        <mxCell id="NeY4OhsJSQNsuHjUpiiP-6" value="Posee" style="rhombus;whiteSpace=wrap;html=1;" vertex="1" parent="1">
          <mxGeometry x="160" y="60" width="160" height="60" as="geometry" />
        </mxCell>
        <mxCell id="NeY4OhsJSQNsuHjUpiiP-9" value="Datos Personales" style="ellipse;whiteSpace=wrap;html=1;" vertex="1" parent="1">
          <mxGeometry y="120" width="120" height="50" as="geometry" />
        </mxCell>
        <mxCell id="NeY4OhsJSQNsuHjUpiiP-10" value="Barco" style="ellipse;whiteSpace=wrap;html=1;" vertex="1" parent="1">
          <mxGeometry y="170" width="120" height="50" as="geometry" />
        </mxCell>
        <mxCell id="NeY4OhsJSQNsuHjUpiiP-11" value="(1,N)" style="text;html=1;align=center;verticalAlign=middle;resizable=0;points=[];autosize=1;strokeColor=none;fillColor=none;" vertex="1" parent="1">
          <mxGeometry x="215" y="18" width="50" height="30" as="geometry" />
        </mxCell>
        <mxCell id="NeY4OhsJSQNsuHjUpiiP-12" value="1" style="text;html=1;align=center;verticalAlign=middle;resizable=0;points=[];autosize=1;strokeColor=none;fillColor=none;" vertex="1" parent="1">
          <mxGeometry x="120" y="30" width="30" height="30" as="geometry" />
        </mxCell>
        <mxCell id="NeY4OhsJSQNsuHjUpiiP-13" value="N" style="text;html=1;align=center;verticalAlign=middle;resizable=0;points=[];autosize=1;strokeColor=none;fillColor=none;" vertex="1" parent="1">
          <mxGeometry x="330" y="30" width="30" height="30" as="geometry" />
        </mxCell>
        <mxCell id="NeY4OhsJSQNsuHjUpiiP-14" value="1" style="text;html=1;align=center;verticalAlign=middle;resizable=0;points=[];autosize=1;strokeColor=none;fillColor=none;" vertex="1" parent="1">
          <mxGeometry x="330" y="120" width="30" height="30" as="geometry" />
        </mxCell>
        <mxCell id="NeY4OhsJSQNsuHjUpiiP-15" value="N" style="text;html=1;align=center;verticalAlign=middle;resizable=0;points=[];autosize=1;strokeColor=none;fillColor=none;" vertex="1" parent="1">
          <mxGeometry x="330" y="250" width="30" height="30" as="geometry" />
        </mxCell>
        <mxCell id="NeY4OhsJSQNsuHjUpiiP-16" value="(1,N)" style="text;html=1;align=center;verticalAlign=middle;resizable=0;points=[];autosize=1;strokeColor=none;fillColor=none;" vertex="1" parent="1">
          <mxGeometry x="280" y="185" width="50" height="30" as="geometry" />
        </mxCell>
        <mxCell id="NeY4OhsJSQNsuHjUpiiP-18" value="Fecha" style="ellipse;whiteSpace=wrap;html=1;" vertex="1" parent="1">
          <mxGeometry x="360" y="340" width="120" height="50" as="geometry" />
        </mxCell>
        <mxCell id="NeY4OhsJSQNsuHjUpiiP-20" value="Hora salida" style="ellipse;whiteSpace=wrap;html=1;" vertex="1" parent="1">
          <mxGeometry x="360" y="390" width="120" height="50" as="geometry" />
        </mxCell>
        <mxCell id="NeY4OhsJSQNsuHjUpiiP-21" value="Destino" style="ellipse;whiteSpace=wrap;html=1;" vertex="1" parent="1">
          <mxGeometry x="480" y="340" width="120" height="50" as="geometry" />
        </mxCell>
        <mxCell id="NeY4OhsJSQNsuHjUpiiP-22" value="Datos patrón" style="ellipse;whiteSpace=wrap;html=1;" vertex="1" parent="1">
          <mxGeometry x="480" y="390" width="120" height="50" as="geometry" />
        </mxCell>
        <mxCell id="NeY4OhsJSQNsuHjUpiiP-23" value="NºMatrícula" style="ellipse;whiteSpace=wrap;html=1;" vertex="1" parent="1">
          <mxGeometry x="480" y="10" width="120" height="50" as="geometry" />
        </mxCell>
        <mxCell id="NeY4OhsJSQNsuHjUpiiP-24" value="NºAmarre" style="ellipse;whiteSpace=wrap;html=1;" vertex="1" parent="1">
          <mxGeometry x="480" y="60" width="120" height="50" as="geometry" />
        </mxCell>
        <mxCell id="NeY4OhsJSQNsuHjUpiiP-25" value="Nombre" style="ellipse;whiteSpace=wrap;html=1;" vertex="1" parent="1">
          <mxGeometry x="600" y="10" width="120" height="50" as="geometry" />
        </mxCell>
        <mxCell id="NeY4OhsJSQNsuHjUpiiP-26" value="Cuota" style="ellipse;whiteSpace=wrap;html=1;" vertex="1" parent="1">
          <mxGeometry x="600" y="60" width="120" height="50" as="geometry" />
        </mxCell>
      </root>
    </mxGraphModel>
  </diagram>
  <diagram id="GfyUb5Xworc6xzD0EFvz" name="Ejercicio4">
    <mxGraphModel dx="1477" dy="637" grid="1" gridSize="10" guides="1" tooltips="1" connect="1" arrows="1" fold="1" page="1" pageScale="1" pageWidth="850" pageHeight="1100" math="0" shadow="0">
      <root>
        <mxCell id="0" />
        <mxCell id="1" parent="0" />
        <mxCell id="8nLM39XnYa3jqfT0NvKw-1" value="Socio" style="rounded=0;whiteSpace=wrap;html=1;" vertex="1" parent="1">
          <mxGeometry x="580" y="60" width="120" height="60" as="geometry" />
        </mxCell>
        <mxCell id="8nLM39XnYa3jqfT0NvKw-2" value="Hoja petición" style="rounded=0;whiteSpace=wrap;html=1;" vertex="1" parent="1">
          <mxGeometry x="130" y="160" width="120" height="60" as="geometry" />
        </mxCell>
        <mxCell id="8nLM39XnYa3jqfT0NvKw-3" value="Libros" style="rounded=0;whiteSpace=wrap;html=1;" vertex="1" parent="1">
          <mxGeometry x="270" y="420" width="120" height="60" as="geometry" />
        </mxCell>
        <mxCell id="8nLM39XnYa3jqfT0NvKw-4" value="Colección" style="whiteSpace=wrap;html=1;" vertex="1" parent="1">
          <mxGeometry x="10" y="420" width="120" height="60" as="geometry" />
        </mxCell>
        <mxCell id="8nLM39XnYa3jqfT0NvKw-5" value="Población" style="rounded=0;whiteSpace=wrap;html=1;" vertex="1" parent="1">
          <mxGeometry x="660" y="230" width="120" height="60" as="geometry" />
        </mxCell>
        <mxCell id="8nLM39XnYa3jqfT0NvKw-6" value="Provincia" style="rounded=0;whiteSpace=wrap;html=1;" vertex="1" parent="1">
          <mxGeometry x="660" y="365" width="120" height="60" as="geometry" />
        </mxCell>
        <mxCell id="8nLM39XnYa3jqfT0NvKw-8" value="" style="endArrow=none;html=1;rounded=0;exitX=1;exitY=0.5;exitDx=0;exitDy=0;entryX=0;entryY=0.5;entryDx=0;entryDy=0;" edge="1" parent="1" source="8nLM39XnYa3jqfT0NvKw-7" target="8nLM39XnYa3jqfT0NvKw-1">
          <mxGeometry width="50" height="50" relative="1" as="geometry">
            <mxPoint x="420" y="300" as="sourcePoint" />
            <mxPoint x="470" y="250" as="targetPoint" />
          </mxGeometry>
        </mxCell>
        <mxCell id="8nLM39XnYa3jqfT0NvKw-9" value="" style="endArrow=none;html=1;rounded=0;exitX=0.5;exitY=0;exitDx=0;exitDy=0;entryX=0.5;entryY=1;entryDx=0;entryDy=0;" edge="1" parent="1" source="8nLM39XnYa3jqfT0NvKw-2" target="8nLM39XnYa3jqfT0NvKw-7">
          <mxGeometry width="50" height="50" relative="1" as="geometry">
            <mxPoint x="190" y="160" as="sourcePoint" />
            <mxPoint x="580" y="90" as="targetPoint" />
          </mxGeometry>
        </mxCell>
        <mxCell id="8nLM39XnYa3jqfT0NvKw-7" value="Realiza" style="rhombus;whiteSpace=wrap;html=1;" vertex="1" parent="1">
          <mxGeometry x="150" y="65" width="80" height="50" as="geometry" />
        </mxCell>
        <mxCell id="8nLM39XnYa3jqfT0NvKw-14" style="edgeStyle=orthogonalEdgeStyle;rounded=0;orthogonalLoop=1;jettySize=auto;html=1;exitX=0.5;exitY=0;exitDx=0;exitDy=0;entryX=0.5;entryY=0;entryDx=0;entryDy=0;" edge="1" parent="1" source="8nLM39XnYa3jqfT0NvKw-12" target="8nLM39XnYa3jqfT0NvKw-1">
          <mxGeometry relative="1" as="geometry" />
        </mxCell>
        <mxCell id="8nLM39XnYa3jqfT0NvKw-15" style="edgeStyle=orthogonalEdgeStyle;rounded=0;orthogonalLoop=1;jettySize=auto;html=1;exitX=0.5;exitY=1;exitDx=0;exitDy=0;entryX=1;entryY=1;entryDx=0;entryDy=0;" edge="1" parent="1" source="8nLM39XnYa3jqfT0NvKw-12" target="8nLM39XnYa3jqfT0NvKw-1">
          <mxGeometry relative="1" as="geometry" />
        </mxCell>
        <mxCell id="8nLM39XnYa3jqfT0NvKw-12" value="Avala" style="rhombus;whiteSpace=wrap;html=1;" vertex="1" parent="1">
          <mxGeometry x="740" y="60" width="80" height="50" as="geometry" />
        </mxCell>
        <mxCell id="8nLM39XnYa3jqfT0NvKw-18" value="" style="endArrow=none;html=1;rounded=0;entryX=0.5;entryY=1;entryDx=0;entryDy=0;exitX=0.5;exitY=0;exitDx=0;exitDy=0;" edge="1" parent="1" source="8nLM39XnYa3jqfT0NvKw-16" target="8nLM39XnYa3jqfT0NvKw-2">
          <mxGeometry width="50" height="50" relative="1" as="geometry">
            <mxPoint x="420" y="300" as="sourcePoint" />
            <mxPoint x="470" y="250" as="targetPoint" />
          </mxGeometry>
        </mxCell>
        <mxCell id="8nLM39XnYa3jqfT0NvKw-19" value="" style="endArrow=none;html=1;rounded=0;entryX=0.5;entryY=1;entryDx=0;entryDy=0;exitX=0.5;exitY=0;exitDx=0;exitDy=0;" edge="1" parent="1" source="8nLM39XnYa3jqfT0NvKw-3" target="8nLM39XnYa3jqfT0NvKw-16">
          <mxGeometry width="50" height="50" relative="1" as="geometry">
            <mxPoint x="150" y="410" as="sourcePoint" />
            <mxPoint x="190" y="220" as="targetPoint" />
          </mxGeometry>
        </mxCell>
        <mxCell id="8nLM39XnYa3jqfT0NvKw-16" value="Solicita" style="rhombus;whiteSpace=wrap;html=1;" vertex="1" parent="1">
          <mxGeometry x="290" y="280" width="80" height="50" as="geometry" />
        </mxCell>
        <mxCell id="8nLM39XnYa3jqfT0NvKw-21" value="" style="endArrow=none;html=1;rounded=0;exitX=1;exitY=0.5;exitDx=0;exitDy=0;entryX=0;entryY=0.5;entryDx=0;entryDy=0;" edge="1" parent="1" source="8nLM39XnYa3jqfT0NvKw-20" target="8nLM39XnYa3jqfT0NvKw-3">
          <mxGeometry width="50" height="50" relative="1" as="geometry">
            <mxPoint x="420" y="300" as="sourcePoint" />
            <mxPoint x="470" y="250" as="targetPoint" />
          </mxGeometry>
        </mxCell>
        <mxCell id="8nLM39XnYa3jqfT0NvKw-22" value="" style="endArrow=none;html=1;rounded=0;exitX=1;exitY=0.5;exitDx=0;exitDy=0;entryX=0;entryY=0.5;entryDx=0;entryDy=0;" edge="1" parent="1" source="8nLM39XnYa3jqfT0NvKw-4" target="8nLM39XnYa3jqfT0NvKw-20">
          <mxGeometry width="50" height="50" relative="1" as="geometry">
            <mxPoint x="130" y="450" as="sourcePoint" />
            <mxPoint x="270" y="450" as="targetPoint" />
          </mxGeometry>
        </mxCell>
        <mxCell id="8nLM39XnYa3jqfT0NvKw-20" value="Pertenece" style="rhombus;whiteSpace=wrap;html=1;" vertex="1" parent="1">
          <mxGeometry x="160" y="425" width="80" height="50" as="geometry" />
        </mxCell>
        <mxCell id="8nLM39XnYa3jqfT0NvKw-23" value="Almacén" style="rounded=0;whiteSpace=wrap;html=1;" vertex="1" parent="1">
          <mxGeometry x="410" y="525" width="120" height="60" as="geometry" />
        </mxCell>
        <mxCell id="8nLM39XnYa3jqfT0NvKw-25" value="" style="endArrow=none;html=1;rounded=0;exitX=1;exitY=0.5;exitDx=0;exitDy=0;entryX=0;entryY=0.5;entryDx=0;entryDy=0;" edge="1" parent="1" source="8nLM39XnYa3jqfT0NvKw-24" target="8nLM39XnYa3jqfT0NvKw-23">
          <mxGeometry width="50" height="50" relative="1" as="geometry">
            <mxPoint x="420" y="300" as="sourcePoint" />
            <mxPoint x="470" y="250" as="targetPoint" />
          </mxGeometry>
        </mxCell>
        <mxCell id="8nLM39XnYa3jqfT0NvKw-27" value="" style="endArrow=none;html=1;rounded=0;exitX=0.5;exitY=1;exitDx=0;exitDy=0;entryX=0.5;entryY=0;entryDx=0;entryDy=0;" edge="1" parent="1" source="8nLM39XnYa3jqfT0NvKw-3" target="8nLM39XnYa3jqfT0NvKw-24">
          <mxGeometry width="50" height="50" relative="1" as="geometry">
            <mxPoint x="330" y="480" as="sourcePoint" />
            <mxPoint x="390" y="560" as="targetPoint" />
          </mxGeometry>
        </mxCell>
        <mxCell id="8nLM39XnYa3jqfT0NvKw-24" value="Almacena" style="rhombus;whiteSpace=wrap;html=1;" vertex="1" parent="1">
          <mxGeometry x="290" y="530" width="80" height="50" as="geometry" />
        </mxCell>
        <mxCell id="8nLM39XnYa3jqfT0NvKw-29" value="Se sitúa" style="rhombus;whiteSpace=wrap;html=1;" vertex="1" parent="1">
          <mxGeometry x="655" y="480" width="80" height="50" as="geometry" />
        </mxCell>
        <mxCell id="8nLM39XnYa3jqfT0NvKw-30" value="Surte" style="rhombus;whiteSpace=wrap;html=1;" vertex="1" parent="1">
          <mxGeometry x="820" y="570" width="80" height="50" as="geometry" />
        </mxCell>
        <mxCell id="8nLM39XnYa3jqfT0NvKw-31" value="" style="endArrow=none;html=1;rounded=0;exitX=0.5;exitY=1;exitDx=0;exitDy=0;entryX=1;entryY=0;entryDx=0;entryDy=0;" edge="1" parent="1" source="8nLM39XnYa3jqfT0NvKw-6" target="8nLM39XnYa3jqfT0NvKw-29">
          <mxGeometry width="50" height="50" relative="1" as="geometry">
            <mxPoint x="420" y="300" as="sourcePoint" />
            <mxPoint x="690" y="480" as="targetPoint" />
          </mxGeometry>
        </mxCell>
        <mxCell id="8nLM39XnYa3jqfT0NvKw-32" value="" style="endArrow=none;html=1;rounded=0;exitX=0;exitY=0.5;exitDx=0;exitDy=0;entryX=1;entryY=0.5;entryDx=0;entryDy=0;" edge="1" parent="1" source="8nLM39XnYa3jqfT0NvKw-29" target="8nLM39XnYa3jqfT0NvKw-23">
          <mxGeometry width="50" height="50" relative="1" as="geometry">
            <mxPoint x="720" y="485" as="sourcePoint" />
            <mxPoint x="670" y="515" as="targetPoint" />
          </mxGeometry>
        </mxCell>
        <mxCell id="8nLM39XnYa3jqfT0NvKw-33" value="" style="endArrow=none;html=1;rounded=0;exitX=0.5;exitY=1;exitDx=0;exitDy=0;entryX=0.5;entryY=0;entryDx=0;entryDy=0;" edge="1" parent="1" source="8nLM39XnYa3jqfT0NvKw-6" target="8nLM39XnYa3jqfT0NvKw-30">
          <mxGeometry width="50" height="50" relative="1" as="geometry">
            <mxPoint x="730" y="495" as="sourcePoint" />
            <mxPoint x="680" y="525" as="targetPoint" />
          </mxGeometry>
        </mxCell>
        <mxCell id="8nLM39XnYa3jqfT0NvKw-34" value="" style="endArrow=none;html=1;rounded=0;exitX=1;exitY=0.5;exitDx=0;exitDy=0;entryX=0;entryY=0.5;entryDx=0;entryDy=0;" edge="1" parent="1" source="8nLM39XnYa3jqfT0NvKw-23" target="8nLM39XnYa3jqfT0NvKw-30">
          <mxGeometry width="50" height="50" relative="1" as="geometry">
            <mxPoint x="740" y="505" as="sourcePoint" />
            <mxPoint x="690" y="535" as="targetPoint" />
          </mxGeometry>
        </mxCell>
        <mxCell id="8nLM39XnYa3jqfT0NvKw-36" value="Pertenece" style="rhombus;whiteSpace=wrap;html=1;" vertex="1" parent="1">
          <mxGeometry x="540" y="300" width="80" height="50" as="geometry" />
        </mxCell>
        <mxCell id="8nLM39XnYa3jqfT0NvKw-39" value="" style="endArrow=none;html=1;rounded=0;exitX=0;exitY=0.5;exitDx=0;exitDy=0;entryX=1;entryY=1;entryDx=0;entryDy=0;" edge="1" parent="1" source="8nLM39XnYa3jqfT0NvKw-6" target="8nLM39XnYa3jqfT0NvKw-36">
          <mxGeometry width="50" height="50" relative="1" as="geometry">
            <mxPoint x="420" y="300" as="sourcePoint" />
            <mxPoint x="470" y="250" as="targetPoint" />
          </mxGeometry>
        </mxCell>
        <mxCell id="8nLM39XnYa3jqfT0NvKw-40" value="" style="endArrow=none;html=1;rounded=0;exitX=1;exitY=0;exitDx=0;exitDy=0;entryX=0;entryY=0.5;entryDx=0;entryDy=0;" edge="1" parent="1" source="8nLM39XnYa3jqfT0NvKw-36" target="8nLM39XnYa3jqfT0NvKw-5">
          <mxGeometry width="50" height="50" relative="1" as="geometry">
            <mxPoint x="420" y="300" as="sourcePoint" />
            <mxPoint x="470" y="250" as="targetPoint" />
          </mxGeometry>
        </mxCell>
        <mxCell id="8nLM39XnYa3jqfT0NvKw-42" value="Pertenece" style="rhombus;whiteSpace=wrap;html=1;" vertex="1" parent="1">
          <mxGeometry x="610" y="160" width="80" height="50" as="geometry" />
        </mxCell>
        <mxCell id="8nLM39XnYa3jqfT0NvKw-43" value="" style="endArrow=none;html=1;rounded=0;exitX=1;exitY=1;exitDx=0;exitDy=0;entryX=0.25;entryY=0;entryDx=0;entryDy=0;" edge="1" parent="1" source="8nLM39XnYa3jqfT0NvKw-42" target="8nLM39XnYa3jqfT0NvKw-5">
          <mxGeometry width="50" height="50" relative="1" as="geometry">
            <mxPoint x="610" y="323" as="sourcePoint" />
            <mxPoint x="670" y="270" as="targetPoint" />
          </mxGeometry>
        </mxCell>
        <mxCell id="8nLM39XnYa3jqfT0NvKw-44" value="" style="endArrow=none;html=1;rounded=0;exitX=0.5;exitY=1;exitDx=0;exitDy=0;entryX=1;entryY=0;entryDx=0;entryDy=0;" edge="1" parent="1" source="8nLM39XnYa3jqfT0NvKw-1" target="8nLM39XnYa3jqfT0NvKw-42">
          <mxGeometry width="50" height="50" relative="1" as="geometry">
            <mxPoint x="620" y="333" as="sourcePoint" />
            <mxPoint x="680" y="280" as="targetPoint" />
          </mxGeometry>
        </mxCell>
        <mxCell id="8nLM39XnYa3jqfT0NvKw-45" value="Codigo Identificativo" style="ellipse;whiteSpace=wrap;html=1;" vertex="1" parent="1">
          <mxGeometry x="10" y="170" width="120" height="50" as="geometry" />
        </mxCell>
        <mxCell id="8nLM39XnYa3jqfT0NvKw-46" value="Forma envio" style="ellipse;whiteSpace=wrap;html=1;" vertex="1" parent="1">
          <mxGeometry x="10" y="220" width="120" height="50" as="geometry" />
        </mxCell>
        <mxCell id="8nLM39XnYa3jqfT0NvKw-47" value="Cantidad ejemplar" style="ellipse;whiteSpace=wrap;html=1;" vertex="1" parent="1">
          <mxGeometry x="10" y="270" width="120" height="50" as="geometry" />
        </mxCell>
        <mxCell id="8nLM39XnYa3jqfT0NvKw-48" value="Forma de pago" style="ellipse;whiteSpace=wrap;html=1;" vertex="1" parent="1">
          <mxGeometry x="10" y="320" width="120" height="50" as="geometry" />
        </mxCell>
        <mxCell id="8nLM39XnYa3jqfT0NvKw-50" value="NºIdentificativo" style="ellipse;whiteSpace=wrap;html=1;" vertex="1" parent="1">
          <mxGeometry x="460" y="40" width="120" height="50" as="geometry" />
        </mxCell>
        <mxCell id="8nLM39XnYa3jqfT0NvKw-51" value="DNI" style="ellipse;whiteSpace=wrap;html=1;" vertex="1" parent="1">
          <mxGeometry x="460" y="90" width="120" height="50" as="geometry" />
        </mxCell>
        <mxCell id="8nLM39XnYa3jqfT0NvKw-52" value="Nombre" style="ellipse;whiteSpace=wrap;html=1;" vertex="1" parent="1">
          <mxGeometry x="460" y="140" width="120" height="50" as="geometry" />
        </mxCell>
        <mxCell id="8nLM39XnYa3jqfT0NvKw-53" value="Teléfono" style="ellipse;whiteSpace=wrap;html=1;" vertex="1" parent="1">
          <mxGeometry x="460" y="190" width="120" height="50" as="geometry" />
        </mxCell>
        <mxCell id="8nLM39XnYa3jqfT0NvKw-54" value="Población" style="ellipse;whiteSpace=wrap;html=1;" vertex="1" parent="1">
          <mxGeometry x="460" y="240" width="120" height="50" as="geometry" />
        </mxCell>
        <mxCell id="8nLM39XnYa3jqfT0NvKw-55" value="ISBN" style="ellipse;whiteSpace=wrap;html=1;" vertex="1" parent="1">
          <mxGeometry x="390" y="390" width="120" height="50" as="geometry" />
        </mxCell>
        <mxCell id="8nLM39XnYa3jqfT0NvKw-56" value="Título" style="ellipse;whiteSpace=wrap;html=1;" vertex="1" parent="1">
          <mxGeometry x="510" y="390" width="120" height="50" as="geometry" />
        </mxCell>
        <mxCell id="8nLM39XnYa3jqfT0NvKw-57" value="Autor" style="ellipse;whiteSpace=wrap;html=1;" vertex="1" parent="1">
          <mxGeometry x="390" y="440" width="120" height="50" as="geometry" />
        </mxCell>
        <mxCell id="8nLM39XnYa3jqfT0NvKw-58" value="Editorial" style="ellipse;whiteSpace=wrap;html=1;" vertex="1" parent="1">
          <mxGeometry x="510" y="440" width="120" height="50" as="geometry" />
        </mxCell>
        <mxCell id="8nLM39XnYa3jqfT0NvKw-59" value="Nombre identificativo" style="ellipse;whiteSpace=wrap;html=1;" vertex="1" parent="1">
          <mxGeometry x="410" y="590" width="120" height="50" as="geometry" />
        </mxCell>
        <mxCell id="8nLM39XnYa3jqfT0NvKw-60" value="Fecha funcionamiento" style="ellipse;whiteSpace=wrap;html=1;" vertex="1" parent="1">
          <mxGeometry x="410" y="640" width="120" height="50" as="geometry" />
        </mxCell>
        <mxCell id="8nLM39XnYa3jqfT0NvKw-61" value="Dirección" style="ellipse;whiteSpace=wrap;html=1;" vertex="1" parent="1">
          <mxGeometry x="410" y="690" width="120" height="50" as="geometry" />
        </mxCell>
        <mxCell id="8nLM39XnYa3jqfT0NvKw-62" value="NºVolumen" style="ellipse;whiteSpace=wrap;html=1;" vertex="1" parent="1">
          <mxGeometry x="10" y="480" width="120" height="50" as="geometry" />
        </mxCell>
        <mxCell id="8nLM39XnYa3jqfT0NvKw-63" value="Extensión" style="ellipse;whiteSpace=wrap;html=1;" vertex="1" parent="1">
          <mxGeometry x="780" y="365" width="120" height="50" as="geometry" />
        </mxCell>
        <mxCell id="8nLM39XnYa3jqfT0NvKw-64" value="NºHabitantes" style="ellipse;whiteSpace=wrap;html=1;" vertex="1" parent="1">
          <mxGeometry x="780" y="235" width="120" height="50" as="geometry" />
        </mxCell>
        <mxCell id="8nLM39XnYa3jqfT0NvKw-65" value="N" style="text;html=1;align=center;verticalAlign=middle;resizable=0;points=[];autosize=1;strokeColor=none;fillColor=none;" vertex="1" parent="1">
          <mxGeometry x="600" y="135" width="30" height="30" as="geometry" />
        </mxCell>
        <mxCell id="8nLM39XnYa3jqfT0NvKw-66" value="1" style="text;html=1;align=center;verticalAlign=middle;resizable=0;points=[];autosize=1;strokeColor=none;fillColor=none;" vertex="1" parent="1">
          <mxGeometry x="650" y="205" width="30" height="30" as="geometry" />
        </mxCell>
        <mxCell id="8nLM39XnYa3jqfT0NvKw-68" value="(1,N)" style="text;html=1;align=center;verticalAlign=middle;resizable=0;points=[];autosize=1;strokeColor=none;fillColor=none;" vertex="1" parent="1">
          <mxGeometry x="685" y="168" width="50" height="30" as="geometry" />
        </mxCell>
        <mxCell id="8nLM39XnYa3jqfT0NvKw-69" value="(1,N)" style="text;html=1;align=center;verticalAlign=middle;resizable=0;points=[];autosize=1;strokeColor=none;fillColor=none;" vertex="1" parent="1">
          <mxGeometry x="820" y="70" width="50" height="30" as="geometry" />
        </mxCell>
        <mxCell id="8nLM39XnYa3jqfT0NvKw-70" value="1" style="text;html=1;align=center;verticalAlign=middle;resizable=0;points=[];autosize=1;strokeColor=none;fillColor=none;" vertex="1" parent="1">
          <mxGeometry x="740" y="140" width="30" height="30" as="geometry" />
        </mxCell>
        <mxCell id="8nLM39XnYa3jqfT0NvKw-71" value="N" style="text;html=1;align=center;verticalAlign=middle;resizable=0;points=[];autosize=1;strokeColor=none;fillColor=none;" vertex="1" parent="1">
          <mxGeometry x="705" y="10" width="30" height="30" as="geometry" />
        </mxCell>
        <mxCell id="8nLM39XnYa3jqfT0NvKw-72" value="N" style="text;html=1;align=center;verticalAlign=middle;resizable=0;points=[];autosize=1;strokeColor=none;fillColor=none;" vertex="1" parent="1">
          <mxGeometry x="625" y="290" width="30" height="30" as="geometry" />
        </mxCell>
        <mxCell id="8nLM39XnYa3jqfT0NvKw-73" value="N" style="text;html=1;align=center;verticalAlign=middle;resizable=0;points=[];autosize=1;strokeColor=none;fillColor=none;" vertex="1" parent="1">
          <mxGeometry x="840" y="525" width="30" height="30" as="geometry" />
        </mxCell>
        <mxCell id="8nLM39XnYa3jqfT0NvKw-74" value="(1,N)" style="text;html=1;align=center;verticalAlign=middle;resizable=0;points=[];autosize=1;strokeColor=none;fillColor=none;" vertex="1" parent="1">
          <mxGeometry x="480" y="310" width="50" height="30" as="geometry" />
        </mxCell>
        <mxCell id="8nLM39XnYa3jqfT0NvKw-75" value="1" style="text;html=1;align=center;verticalAlign=middle;resizable=0;points=[];autosize=1;strokeColor=none;fillColor=none;" vertex="1" parent="1">
          <mxGeometry x="625" y="340" width="30" height="30" as="geometry" />
        </mxCell>
        <mxCell id="8nLM39XnYa3jqfT0NvKw-76" value="N" style="text;html=1;align=center;verticalAlign=middle;resizable=0;points=[];autosize=1;strokeColor=none;fillColor=none;" vertex="1" parent="1">
          <mxGeometry x="570" y="500" width="30" height="30" as="geometry" />
        </mxCell>
        <mxCell id="8nLM39XnYa3jqfT0NvKw-77" value="1" style="text;html=1;align=center;verticalAlign=middle;resizable=0;points=[];autosize=1;strokeColor=none;fillColor=none;" vertex="1" parent="1">
          <mxGeometry x="685" y="425" width="30" height="30" as="geometry" />
        </mxCell>
        <mxCell id="8nLM39XnYa3jqfT0NvKw-78" value="(1,N)" style="text;html=1;align=center;verticalAlign=middle;resizable=0;points=[];autosize=1;strokeColor=none;fillColor=none;" vertex="1" parent="1">
          <mxGeometry x="640" y="460" width="50" height="30" as="geometry" />
        </mxCell>
        <mxCell id="8nLM39XnYa3jqfT0NvKw-79" value="(1,N)" style="text;html=1;align=center;verticalAlign=middle;resizable=0;points=[];autosize=1;strokeColor=none;fillColor=none;" vertex="1" parent="1">
          <mxGeometry x="835" y="630" width="50" height="30" as="geometry" />
        </mxCell>
        <mxCell id="8nLM39XnYa3jqfT0NvKw-80" value="1" style="text;html=1;align=center;verticalAlign=middle;resizable=0;points=[];autosize=1;strokeColor=none;fillColor=none;" vertex="1" parent="1">
          <mxGeometry x="790" y="610" width="30" height="30" as="geometry" />
        </mxCell>
        <mxCell id="8nLM39XnYa3jqfT0NvKw-81" value="(1,N)" style="text;html=1;align=center;verticalAlign=middle;resizable=0;points=[];autosize=1;strokeColor=none;fillColor=none;" vertex="1" parent="1">
          <mxGeometry x="175" y="395" width="50" height="30" as="geometry" />
        </mxCell>
        <mxCell id="8nLM39XnYa3jqfT0NvKw-82" value="N" style="text;html=1;align=center;verticalAlign=middle;resizable=0;points=[];autosize=1;strokeColor=none;fillColor=none;" vertex="1" parent="1">
          <mxGeometry x="240" y="420" width="30" height="30" as="geometry" />
        </mxCell>
        <mxCell id="8nLM39XnYa3jqfT0NvKw-83" value="1" style="text;html=1;align=center;verticalAlign=middle;resizable=0;points=[];autosize=1;strokeColor=none;fillColor=none;" vertex="1" parent="1">
          <mxGeometry x="130" y="420" width="30" height="30" as="geometry" />
        </mxCell>
        <mxCell id="8nLM39XnYa3jqfT0NvKw-84" value="N" style="text;html=1;align=center;verticalAlign=middle;resizable=0;points=[];autosize=1;strokeColor=none;fillColor=none;" vertex="1" parent="1">
          <mxGeometry x="330" y="390" width="30" height="30" as="geometry" />
        </mxCell>
        <mxCell id="8nLM39XnYa3jqfT0NvKw-85" value="1" style="text;html=1;align=center;verticalAlign=middle;resizable=0;points=[];autosize=1;strokeColor=none;fillColor=none;" vertex="1" parent="1">
          <mxGeometry x="250" y="220" width="30" height="30" as="geometry" />
        </mxCell>
        <mxCell id="8nLM39XnYa3jqfT0NvKw-86" value="(1,N)" style="text;html=1;align=center;verticalAlign=middle;resizable=0;points=[];autosize=1;strokeColor=none;fillColor=none;" vertex="1" parent="1">
          <mxGeometry x="240" y="290" width="50" height="30" as="geometry" />
        </mxCell>
        <mxCell id="8nLM39XnYa3jqfT0NvKw-87" value="(1,N)" style="text;html=1;align=center;verticalAlign=middle;resizable=0;points=[];autosize=1;strokeColor=none;fillColor=none;" vertex="1" parent="1">
          <mxGeometry x="230" y="540" width="50" height="30" as="geometry" />
        </mxCell>
        <mxCell id="8nLM39XnYa3jqfT0NvKw-88" value="1" style="text;html=1;align=center;verticalAlign=middle;resizable=0;points=[];autosize=1;strokeColor=none;fillColor=none;" vertex="1" parent="1">
          <mxGeometry x="380" y="525" width="30" height="30" as="geometry" />
        </mxCell>
        <mxCell id="8nLM39XnYa3jqfT0NvKw-89" value="N" style="text;html=1;align=center;verticalAlign=middle;resizable=0;points=[];autosize=1;strokeColor=none;fillColor=none;" vertex="1" parent="1">
          <mxGeometry x="330" y="480" width="30" height="30" as="geometry" />
        </mxCell>
        <mxCell id="8nLM39XnYa3jqfT0NvKw-90" value="(1,N)" style="text;html=1;align=center;verticalAlign=middle;resizable=0;points=[];autosize=1;strokeColor=none;fillColor=none;" vertex="1" parent="1">
          <mxGeometry x="165" y="40" width="50" height="30" as="geometry" />
        </mxCell>
        <mxCell id="8nLM39XnYa3jqfT0NvKw-91" value="1" style="text;html=1;align=center;verticalAlign=middle;resizable=0;points=[];autosize=1;strokeColor=none;fillColor=none;" vertex="1" parent="1">
          <mxGeometry x="230" y="60" width="30" height="30" as="geometry" />
        </mxCell>
        <mxCell id="8nLM39XnYa3jqfT0NvKw-92" value="N" style="text;html=1;align=center;verticalAlign=middle;resizable=0;points=[];autosize=1;strokeColor=none;fillColor=none;" vertex="1" parent="1">
          <mxGeometry x="195" y="130" width="30" height="30" as="geometry" />
        </mxCell>
      </root>
    </mxGraphModel>
  </diagram>
</mxfile>
